<svg xmlns="http://www.w3.org/2000/svg" xmlns:xlink="http://www.w3.org/1999/xlink" width="330" zoomAndPan="magnify" viewBox="0 0 247.5 30.000001" height="40" preserveAspectRatio="xMidYMid meet" version="1.0"><defs><g/><clipPath id="3703dfbc16"><path d="M 3.75 0 L 129.886719 0 L 129.886719 29.03125 L 3.75 29.03125 Z M 3.75 0 " clip-rule="nonzero"/></clipPath><clipPath id="327de267a3"><path d="M 7.386719 0 L 126.132812 0 C 128.140625 0 129.769531 1.628906 129.769531 3.636719 L 129.769531 26.328125 C 129.769531 28.335938 128.140625 29.964844 126.132812 29.964844 L 7.386719 29.964844 C 5.378906 29.964844 3.75 28.335938 3.75 26.328125 L 3.75 3.636719 C 3.75 1.628906 5.378906 0 7.386719 0 " clip-rule="nonzero"/></clipPath><clipPath id="c5713198c9"><path d="M 7.464844 4.492188 L 28 4.492188 L 28 24.855469 L 7.464844 24.855469 Z M 7.464844 4.492188 " clip-rule="nonzero"/></clipPath><clipPath id="d388c43344"><path d="M 23 14 L 33.648438 14 L 33.648438 24.855469 L 23 24.855469 Z M 23 14 " clip-rule="nonzero"/></clipPath></defs><g clip-path="url(#3703dfbc16)"><g clip-path="url(#327de267a3)"><path fill="#e6007a" d="M 3.75 0 L 129.75 0 L 129.75 30 L 3.75 30 Z M 3.75 0 " fill-opacity="1" fill-rule="nonzero"/></g></g><g fill="#ffffff" fill-opacity="1"><g transform="translate(37.062876, 19.850353)"><g><path d="M 1.902344 0 C 2.148438 0 2.210938 -0.0820312 2.359375 -0.34375 L 5.996094 -8.355469 L 6.03125 -8.355469 L 7.800781 -4.570312 L 9.714844 -4.570312 L 6.324219 -11.386719 C 6.195312 -11.585938 6.160156 -11.714844 6.03125 -11.714844 L 5.980469 -11.714844 C 5.867188 -11.714844 5.816406 -11.585938 5.703125 -11.386719 L 0.164062 -0.34375 C 0.0820312 -0.179688 0.179688 0 0.375 0 Z M 11.632812 0 C 11.847656 0 11.945312 -0.179688 11.863281 -0.34375 L 9.863281 -4.277344 L 4.472656 -4.277344 L 3.703125 -2.589844 L 8.585938 -2.589844 L 9.667969 -0.34375 C 9.796875 -0.0820312 9.878906 0 10.125 0 Z M 11.632812 0 "/></g></g></g><g fill="#ffffff" fill-opacity="1"><g transform="translate(49.049326, 19.850353)"><g><path d="M 11.042969 0.246094 C 11.140625 0.246094 11.207031 0.132812 11.304688 -0.0820312 L 11.863281 -1.476562 L 8.292969 -11.339844 C 8.191406 -11.566406 8.144531 -11.683594 8.011719 -11.683594 L 7.78125 -11.683594 C 7.652344 -11.683594 7.601562 -11.566406 7.503906 -11.339844 L 5.078125 -4.34375 L 5.914062 -1.984375 L 7.898438 -7.898438 L 10.652344 -0.0820312 C 10.75 0.132812 10.8125 0.246094 10.894531 0.246094 Z M 4.488281 -0.0820312 C 4.605469 0.148438 4.652344 0.246094 4.734375 0.246094 L 5.015625 0.246094 C 5.113281 0.246094 5.160156 0.132812 5.257812 -0.0820312 L 5.769531 -1.554688 L 2.390625 -11.125 C 2.308594 -11.386719 2.195312 -11.46875 1.933594 -11.46875 L 0.359375 -11.46875 C 0.113281 -11.46875 0.0664062 -11.386719 0.179688 -11.125 Z M 13.863281 -11.46875 C 13.601562 -11.46875 13.484375 -11.386719 13.402344 -11.125 L 11.058594 -4.523438 L 12.011719 -1.867188 L 15.617188 -11.125 C 15.730469 -11.386719 15.679688 -11.46875 15.433594 -11.46875 Z M 13.863281 -11.46875 "/></g></g></g><g fill="#ffffff" fill-opacity="1"><g transform="translate(64.802011, 19.850353)"><g><path d="M 1.394531 -0.34375 C 1.394531 -0.0820312 1.476562 0 1.753906 0 L 3.375 0 L 3.375 -11.46875 L 1.753906 -11.46875 C 1.492188 -11.46875 1.394531 -11.386719 1.394531 -11.125 Z M 3.671875 -11.46875 L 3.671875 -9.765625 L 9.109375 -9.765625 C 9.371094 -9.765625 9.472656 -9.863281 9.472656 -10.125 L 9.472656 -11.125 C 9.472656 -11.386719 9.371094 -11.46875 9.109375 -11.46875 Z M 9.472656 -1.34375 C 9.472656 -1.621094 9.390625 -1.6875 9.109375 -1.6875 L 3.671875 -1.6875 L 3.671875 0 L 9.109375 0 C 9.390625 0 9.472656 -0.0820312 9.472656 -0.34375 Z M 3.671875 -6.621094 L 3.671875 -4.933594 L 8.863281 -4.933594 C 9.144531 -4.933594 9.207031 -5.015625 9.207031 -5.277344 L 9.207031 -6.277344 C 9.207031 -6.554688 9.144531 -6.621094 8.863281 -6.621094 Z M 3.671875 -6.621094 "/></g></g></g><g fill="#ffffff" fill-opacity="1"><g transform="translate(75.232842, 19.850353)"><g><path d="M 5.75 -6.570312 C 4.078125 -6.785156 2.917969 -7.03125 2.917969 -8.128906 C 2.917969 -8.898438 3.328125 -9.832031 5.078125 -9.914062 L 5.078125 -11.648438 C 2.03125 -11.601562 1 -9.453125 1 -8.0625 C 1 -5.785156 3.03125 -5.160156 4.816406 -4.933594 C 6.652344 -4.6875 7.75 -4.375 7.75 -3.195312 C 7.75 -2.066406 6.800781 -1.554688 5.292969 -1.554688 L 5.292969 0.179688 L 5.457031 0.179688 C 8.273438 0.179688 9.667969 -1.539062 9.667969 -3.277344 C 9.667969 -5.703125 7.75 -6.324219 5.75 -6.570312 Z M 0.984375 -1.066406 C 2.097656 -0.296875 3.488281 0.132812 4.996094 0.179688 L 4.996094 -1.554688 C 4.046875 -1.589844 2.851562 -1.882812 1.867188 -2.523438 C 1.785156 -2.589844 1.703125 -2.605469 1.65625 -2.605469 C 1.539062 -2.605469 1.476562 -2.523438 1.394531 -2.375 L 0.886719 -1.554688 C 0.769531 -1.328125 0.738281 -1.210938 0.984375 -1.066406 Z M 5.375 -9.914062 C 6.570312 -9.914062 7.390625 -9.601562 8.371094 -8.945312 C 8.453125 -8.898438 8.519531 -8.863281 8.570312 -8.863281 C 8.683594 -8.863281 8.765625 -8.960938 8.847656 -9.109375 L 9.339844 -9.914062 C 9.453125 -10.144531 9.488281 -10.273438 9.257812 -10.40625 C 8.09375 -11.125 7.03125 -11.617188 5.375 -11.648438 Z M 5.375 -9.914062 "/></g></g></g><g fill="#ffffff" fill-opacity="1"><g transform="translate(85.7128, 19.850353)"><g><path d="M 6.488281 -1.523438 C 4.261719 -1.621094 2.753906 -3.671875 2.753906 -5.734375 C 2.753906 -7.800781 4.242188 -9.847656 6.488281 -9.945312 L 6.488281 -11.683594 C 3.292969 -11.601562 0.753906 -8.898438 0.753906 -5.734375 C 0.753906 -2.574219 3.261719 0.113281 6.488281 0.214844 Z M 6.785156 -9.945312 C 9.0625 -9.847656 10.519531 -7.800781 10.519531 -5.734375 C 10.519531 -3.671875 9.0625 -1.621094 6.785156 -1.523438 L 6.785156 0.214844 C 9.996094 0.113281 12.519531 -2.574219 12.519531 -5.734375 C 12.519531 -8.898438 9.980469 -11.601562 6.785156 -11.683594 Z M 6.785156 -9.945312 "/></g></g></g><g fill="#ffffff" fill-opacity="1"><g transform="translate(98.976493, 19.850353)"><g><path d="M 8.0625 -2.6875 L 2.769531 -11.535156 C 2.703125 -11.648438 2.636719 -11.683594 2.574219 -11.683594 L 2.308594 -11.683594 L 2.046875 -9.390625 L 7.601562 -0.132812 C 7.734375 0.0820312 7.832031 0.214844 7.964844 0.214844 L 8.144531 0.214844 C 8.273438 0.214844 8.371094 0.0820312 8.519531 -0.132812 L 14.074219 -9.390625 L 13.765625 -11.683594 L 13.550781 -11.683594 C 13.484375 -11.683594 13.417969 -11.648438 13.355469 -11.535156 Z M 2.574219 0 C 2.835938 0 2.882812 -0.0664062 2.917969 -0.34375 L 3.589844 -6.277344 L 1.984375 -8.945312 L 0.933594 -0.34375 C 0.902344 -0.0976562 1.015625 0 1.277344 0 Z M 13.207031 -0.34375 C 13.222656 -0.0664062 13.289062 0 13.550781 0 L 14.84375 0 C 15.105469 0 15.222656 -0.0976562 15.1875 -0.34375 L 14.125 -8.929688 L 12.519531 -6.257812 Z M 13.207031 -0.34375 "/></g></g></g><g fill="#ffffff" fill-opacity="1"><g transform="translate(115.073051, 19.850353)"><g><path d="M 1.394531 -0.34375 C 1.394531 -0.0820312 1.476562 0 1.753906 0 L 3.375 0 L 3.375 -11.46875 L 1.753906 -11.46875 C 1.492188 -11.46875 1.394531 -11.386719 1.394531 -11.125 Z M 3.671875 -11.46875 L 3.671875 -9.765625 L 9.109375 -9.765625 C 9.371094 -9.765625 9.472656 -9.863281 9.472656 -10.125 L 9.472656 -11.125 C 9.472656 -11.386719 9.371094 -11.46875 9.109375 -11.46875 Z M 9.472656 -1.34375 C 9.472656 -1.621094 9.390625 -1.6875 9.109375 -1.6875 L 3.671875 -1.6875 L 3.671875 0 L 9.109375 0 C 9.390625 0 9.472656 -0.0820312 9.472656 -0.34375 Z M 3.671875 -6.621094 L 3.671875 -4.933594 L 8.863281 -4.933594 C 9.144531 -4.933594 9.207031 -5.015625 9.207031 -5.277344 L 9.207031 -6.277344 C 9.207031 -6.554688 9.144531 -6.621094 8.863281 -6.621094 Z M 3.671875 -6.621094 "/></g></g></g><g clip-path="url(#c5713198c9)"><path fill="#222222" d="M 17.648438 9.914062 C 17.707031 10.484375 17.859375 11.027344 18.105469 11.542969 C 18.347656 12.058594 18.667969 12.519531 19.066406 12.921875 C 19.464844 13.328125 19.917969 13.652344 20.425781 13.898438 C 20.933594 14.148438 21.464844 14.300781 22.027344 14.363281 C 23.792969 14.542969 25.566406 14.625 27.34375 14.609375 C 25.566406 14.597656 23.792969 14.679688 22.027344 14.855469 C 21.464844 14.917969 20.933594 15.074219 20.425781 15.320312 C 19.917969 15.570312 19.464844 15.894531 19.066406 16.296875 C 18.667969 16.703125 18.347656 17.164062 18.105469 17.679688 C 17.859375 18.195312 17.707031 18.738281 17.648438 19.304688 C 17.472656 21.101562 17.390625 22.90625 17.40625 24.710938 C 17.417969 22.90625 17.339844 21.101562 17.164062 19.304688 C 17.101562 18.738281 16.949219 18.195312 16.707031 17.679688 C 16.460938 17.164062 16.140625 16.703125 15.742188 16.296875 C 15.34375 15.894531 14.894531 15.566406 14.386719 15.320312 C 13.878906 15.074219 13.34375 14.917969 12.785156 14.855469 C 11.015625 14.679688 9.242188 14.59375 7.464844 14.609375 C 9.242188 14.625 11.015625 14.542969 12.785156 14.363281 C 13.34375 14.300781 13.878906 14.148438 14.386719 13.898438 C 14.894531 13.652344 15.34375 13.328125 15.742188 12.921875 C 16.140625 12.519531 16.460938 12.058594 16.707031 11.542969 C 16.949219 11.027344 17.101562 10.484375 17.164062 9.914062 C 17.339844 8.117188 17.417969 6.316406 17.40625 4.511719 C 17.390625 6.316406 17.472656 8.117188 17.648438 9.914062 Z M 17.648438 9.914062 " fill-opacity="1" fill-rule="nonzero"/></g><g clip-path="url(#d388c43344)"><path fill="#222222" d="M 28.746094 17.34375 C 28.777344 17.632812 28.851562 17.90625 28.976562 18.167969 C 29.097656 18.429688 29.261719 18.664062 29.464844 18.867188 C 29.664062 19.070312 29.894531 19.238281 30.152344 19.363281 C 30.40625 19.488281 30.675781 19.566406 30.960938 19.597656 C 31.855469 19.6875 32.753906 19.730469 33.652344 19.722656 C 32.753906 19.714844 31.855469 19.753906 30.960938 19.847656 C 30.675781 19.878906 30.40625 19.957031 30.152344 20.082031 C 29.894531 20.207031 29.664062 20.371094 29.464844 20.574219 C 29.261719 20.78125 29.097656 21.011719 28.976562 21.273438 C 28.851562 21.535156 28.777344 21.808594 28.746094 22.097656 C 28.65625 23.007812 28.613281 23.917969 28.621094 24.832031 C 28.628906 23.917969 28.589844 23.007812 28.5 22.097656 C 28.46875 21.808594 28.390625 21.535156 28.269531 21.273438 C 28.144531 21.011719 27.984375 20.78125 27.78125 20.574219 C 27.578125 20.371094 27.351562 20.207031 27.09375 20.082031 C 26.835938 19.957031 26.566406 19.878906 26.285156 19.847656 C 25.390625 19.753906 24.492188 19.714844 23.59375 19.722656 C 24.492188 19.730469 25.390625 19.6875 26.285156 19.597656 C 26.566406 19.566406 26.835938 19.488281 27.09375 19.363281 C 27.351562 19.238281 27.578125 19.070312 27.78125 18.867188 C 27.984375 18.664062 28.144531 18.429688 28.269531 18.167969 C 28.390625 17.90625 28.46875 17.632812 28.5 17.34375 C 28.589844 16.4375 28.628906 15.523438 28.621094 14.609375 C 28.617188 15.523438 28.65625 16.4375 28.746094 17.34375 Z M 28.746094 17.34375 " fill-opacity="1" fill-rule="nonzero"/></g><path fill="#222222" d="M 24.964844 7.257812 C 25.003906 7.621094 25.148438 7.929688 25.402344 8.1875 C 25.65625 8.445312 25.960938 8.59375 26.316406 8.632812 C 26.863281 8.691406 27.410156 8.714844 27.960938 8.710938 C 27.410156 8.707031 26.863281 8.730469 26.316406 8.785156 C 25.960938 8.824219 25.65625 8.972656 25.402344 9.230469 C 25.148438 9.488281 25.003906 9.800781 24.964844 10.160156 C 24.910156 10.714844 24.882812 11.273438 24.890625 11.832031 C 24.894531 11.273438 24.867188 10.714844 24.8125 10.160156 C 24.773438 9.800781 24.628906 9.488281 24.375 9.230469 C 24.121094 8.972656 23.816406 8.824219 23.460938 8.785156 C 22.914062 8.730469 22.367188 8.707031 21.816406 8.710938 C 22.367188 8.714844 22.914062 8.691406 23.460938 8.632812 C 23.816406 8.59375 24.121094 8.445312 24.375 8.1875 C 24.628906 7.929688 24.773438 7.621094 24.8125 7.257812 C 24.867188 6.703125 24.894531 6.148438 24.890625 5.589844 C 24.882812 6.148438 24.910156 6.703125 24.964844 7.257812 Z M 24.964844 7.257812 " fill-opacity="1" fill-rule="nonzero"/><g fill="#211f60" fill-opacity="1"><g transform="translate(136.420412, 19.850353)"><g><path d="M 5.75 -4.539062 C 7.667969 -4.539062 9.847656 -5.375 9.847656 -8.027344 C 9.847656 -10.683594 7.667969 -11.46875 5.75 -11.46875 L 3.6875 -11.46875 L 3.6875 -9.816406 L 5.667969 -9.816406 C 7.375 -9.816406 7.929688 -9.027344 7.929688 -8.027344 C 7.929688 -6.996094 7.375 -6.195312 5.667969 -6.195312 L 3.6875 -6.195312 L 3.6875 -4.539062 Z M 3.0625 0 C 3.328125 0 3.390625 -0.0820312 3.40625 -0.34375 L 3.40625 -11.46875 L 1.769531 -11.46875 C 1.507812 -11.46875 1.425781 -11.402344 1.425781 -11.125 L 1.425781 -0.34375 C 1.425781 -0.0820312 1.492188 0 1.769531 0 Z M 3.0625 0 "/></g></g></g><g fill="#211f60" fill-opacity="1"><g transform="translate(146.589246, 19.850353)"><g><path d="M 6.488281 -1.523438 C 4.261719 -1.621094 2.753906 -3.671875 2.753906 -5.734375 C 2.753906 -7.800781 4.242188 -9.847656 6.488281 -9.945312 L 6.488281 -11.683594 C 3.292969 -11.601562 0.753906 -8.898438 0.753906 -5.734375 C 0.753906 -2.574219 3.261719 0.113281 6.488281 0.214844 Z M 6.785156 -9.945312 C 9.0625 -9.847656 10.519531 -7.800781 10.519531 -5.734375 C 10.519531 -3.671875 9.0625 -1.621094 6.785156 -1.523438 L 6.785156 0.214844 C 9.996094 0.113281 12.519531 -2.574219 12.519531 -5.734375 C 12.519531 -8.898438 9.980469 -11.601562 6.785156 -11.683594 Z M 6.785156 -9.945312 "/></g></g></g><g fill="#211f60" fill-opacity="1"><g transform="translate(159.852939, 19.850353)"><g><path d="M 3.40625 -11.125 C 3.40625 -11.386719 3.328125 -11.46875 3.0625 -11.46875 L 1.769531 -11.46875 C 1.507812 -11.46875 1.425781 -11.386719 1.425781 -11.125 L 1.425781 -0.34375 C 1.425781 -0.0820312 1.507812 0 1.769531 0 L 3.40625 0 Z M 8.488281 0 C 8.75 0 8.832031 -0.0820312 8.832031 -0.34375 L 8.832031 -1.34375 C 8.832031 -1.621094 8.75 -1.6875 8.488281 -1.6875 L 3.6875 -1.6875 L 3.6875 0 Z M 8.488281 0 "/></g></g></g><g fill="#211f60" fill-opacity="1"><g transform="translate(169.203026, 19.850353)"><g><path d="M 1.457031 -0.34375 C 1.457031 -0.0820312 1.539062 0 1.800781 0 L 3.097656 0 C 3.359375 0 3.441406 -0.0664062 3.441406 -0.34375 L 3.441406 -11.125 C 3.441406 -11.386719 3.359375 -11.46875 3.097656 -11.46875 L 1.800781 -11.46875 C 1.539062 -11.46875 1.457031 -11.386719 1.457031 -11.125 Z M 8.535156 -11.46875 C 8.292969 -11.46875 8.226562 -11.386719 7.980469 -11.125 L 3.71875 -6.585938 L 3.71875 -5.226562 L 4.242188 -4.652344 L 10.324219 -11.125 C 10.550781 -11.371094 10.421875 -11.46875 10.175781 -11.46875 Z M 10.386719 0 C 10.601562 0 10.796875 -0.0507812 10.535156 -0.34375 L 5.652344 -5.769531 L 4.441406 -4.457031 L 8.210938 -0.34375 C 8.421875 -0.0820312 8.503906 0 8.734375 0 Z M 10.386719 0 "/></g></g></g><g fill="#211f60" fill-opacity="1"><g transform="translate(180.14148, 19.850353)"><g><path d="M 1.902344 0 C 2.148438 0 2.210938 -0.0820312 2.359375 -0.34375 L 5.996094 -8.355469 L 6.03125 -8.355469 L 7.800781 -4.570312 L 9.714844 -4.570312 L 6.324219 -11.386719 C 6.195312 -11.585938 6.160156 -11.714844 6.03125 -11.714844 L 5.980469 -11.714844 C 5.867188 -11.714844 5.816406 -11.585938 5.703125 -11.386719 L 0.164062 -0.34375 C 0.0820312 -0.179688 0.179688 0 0.375 0 Z M 11.632812 0 C 11.847656 0 11.945312 -0.179688 11.863281 -0.34375 L 9.863281 -4.277344 L 4.472656 -4.277344 L 3.703125 -2.589844 L 8.585938 -2.589844 L 9.667969 -0.34375 C 9.796875 -0.0820312 9.878906 0 10.125 0 Z M 11.632812 0 "/></g></g></g><g fill="#211f60" fill-opacity="1"><g transform="translate(192.12793, 19.850353)"><g><path d="M 1.015625 -1.066406 C 1.015625 -0.359375 1.554688 0.179688 2.261719 0.179688 C 2.964844 0.179688 3.539062 -0.359375 3.539062 -1.066406 C 3.539062 -1.769531 2.964844 -2.328125 2.261719 -2.328125 C 1.554688 -2.328125 1.015625 -1.769531 1.015625 -1.066406 Z M 1.015625 -1.066406 "/></g></g></g></svg>